<svg width="22" height="22" viewBox="0 0 22 22" fill="none" xmlns="http://www.w3.org/2000/svg">
<path d="M15.5994 10.2044L17.4205 8.38334L13.0708 4.03367L11.2498 5.85473L6.44772 1.06429C5.54299 0.159559 4.0699 0.159559 3.16517 1.06429L0.961333 3.26812C0.0566015 4.17286 0.0566015 5.64594 0.961333 6.55067L5.75177 11.3411L0.242188 16.8623V21.212H4.59186L10.113 15.6908L14.9035 20.4812C16.0054 21.5831 17.4901 21.1772 18.186 20.4812L20.3899 18.2774C21.2946 17.3727 21.2946 15.8996 20.3899 14.9948L15.5994 10.2044ZM7.41044 9.69404L2.60841 4.9036L4.80064 2.69977L6.27373 4.17286L4.90503 5.55315L6.54051 7.18863L7.92081 5.80833L9.60268 7.4902L7.41044 9.69404ZM16.5506 18.8457L11.7601 14.0553L13.9639 11.8515L15.6458 13.5333L14.2655 14.9136L15.901 16.5491L17.2813 15.1688L18.7544 16.6419L16.5506 18.8457Z" fill="white"/>
<path d="M20.7843 5.0196C21.2367 4.56723 21.2367 3.83649 20.7843 3.38412L18.0701 0.669927C17.525 0.124769 16.771 0.333553 16.4346 0.669927L14.312 2.79257L18.6617 7.14224L20.7843 5.0196Z" fill="white"/>
</svg>
